<mxfile host="65bd71144e">
    <diagram id="C5rDnz10_f9K-UTjnm8k" name="Page-1">
        <mxGraphModel dx="1130" dy="787" grid="1" gridSize="10" guides="1" tooltips="1" connect="1" arrows="1" fold="1" page="1" pageScale="1" pageWidth="850" pageHeight="1100" math="0" shadow="0">
            <root>
                <mxCell id="0"/>
                <mxCell id="1" parent="0"/>
                <mxCell id="2" value="" style="whiteSpace=wrap;html=1;aspect=fixed;" parent="1" vertex="1">
                    <mxGeometry x="90" y="70" width="420" height="420" as="geometry"/>
                </mxCell>
                <mxCell id="3" value="" style="whiteSpace=wrap;html=1;" parent="1" vertex="1">
                    <mxGeometry x="190" y="140" width="220" height="30" as="geometry"/>
                </mxCell>
                <mxCell id="4" value="Search Title:" style="text;strokeColor=none;align=center;fillColor=none;html=1;verticalAlign=middle;whiteSpace=wrap;rounded=0;" parent="1" vertex="1">
                    <mxGeometry x="100" y="140" width="80" height="30" as="geometry"/>
                </mxCell>
                <mxCell id="5" value="Playstore eBook Search" style="text;strokeColor=none;align=center;fillColor=none;html=1;verticalAlign=middle;whiteSpace=wrap;rounded=0;fontSize=19;" parent="1" vertex="1">
                    <mxGeometry x="172.5" y="90" width="255" height="30" as="geometry"/>
                </mxCell>
                <mxCell id="6" value="Search" style="whiteSpace=wrap;html=1;fontSize=16;labelBackgroundColor=none;fillColor=#a3a1a5;" parent="1" vertex="1">
                    <mxGeometry x="415" y="140" width="85" height="30" as="geometry"/>
                </mxCell>
                <mxCell id="8" value="" style="whiteSpace=wrap;html=1;labelBackgroundColor=none;fontSize=16;fillColor=#bfbec1;" parent="1" vertex="1">
                    <mxGeometry x="110" y="190" width="380" height="280" as="geometry"/>
                </mxCell>
                <mxCell id="9" value="Title: &lt;i&gt;Book Title&lt;/i&gt;" style="text;strokeColor=none;align=left;fillColor=none;html=1;verticalAlign=middle;whiteSpace=wrap;rounded=0;labelBackgroundColor=none;fontSize=16;" parent="1" vertex="1">
                    <mxGeometry x="120" y="200" width="260" height="30" as="geometry"/>
                </mxCell>
                <mxCell id="10" value="Author: &lt;i&gt;Book Author&lt;/i&gt;" style="text;strokeColor=none;align=left;fillColor=none;html=1;verticalAlign=middle;whiteSpace=wrap;rounded=0;labelBackgroundColor=none;fontSize=16;" parent="1" vertex="1">
                    <mxGeometry x="120" y="230" width="260" height="30" as="geometry"/>
                </mxCell>
                <mxCell id="11" value="Summary: &lt;i&gt;Book Summary&lt;/i&gt;" style="text;strokeColor=none;align=left;fillColor=none;html=1;verticalAlign=top;whiteSpace=wrap;rounded=0;labelBackgroundColor=none;fontSize=16;" parent="1" vertex="1">
                    <mxGeometry x="120" y="260" width="360" height="200" as="geometry"/>
                </mxCell>
                <mxCell id="12" value="" style="html=1;shadow=0;dashed=0;align=center;verticalAlign=middle;shape=mxgraph.arrows2.arrow;dy=0.64;dx=21.33;direction=south;notch=0;labelBackgroundColor=none;fontSize=16;fillColor=#60a917;fontColor=#ffffff;strokeColor=#2D7600;fillStyle=auto;opacity=50;" parent="1" vertex="1">
                    <mxGeometry x="450" y="410" width="30" height="40" as="geometry"/>
                </mxCell>
            </root>
        </mxGraphModel>
    </diagram>
</mxfile>